<?xml version="1.0" encoding="UTF-8" standalone="no"?>
<svg
   xmlns:dc="http://purl.org/dc/elements/1.1/"
   xmlns:cc="http://creativecommons.org/ns#"
   xmlns:rdf="http://www.w3.org/1999/02/22-rdf-syntax-ns#"
   xmlns:svg="http://www.w3.org/2000/svg"
   xmlns="http://www.w3.org/2000/svg"
   xmlns:sodipodi="http://sodipodi.sourceforge.net/DTD/sodipodi-0.dtd"
   xmlns:inkscape="http://www.inkscape.org/namespaces/inkscape"
   sodipodi:docname="Florida State Seminoles 2014- Logo.svg"
   inkscape:version="1.0 (4035a4fb49, 2020-05-01)"
   id="svg8"
   version="1.1"
   viewBox="0 0 38.942719 39.6875"
   height="39.6875mm"
   width="38.942719mm">
  <defs
     id="defs2" />
  <sodipodi:namedview
     inkscape:window-maximized="1"
     inkscape:window-y="-11"
     inkscape:window-x="-11"
     inkscape:window-height="986"
     inkscape:window-width="1920"
     fit-margin-bottom="0"
     fit-margin-right="0"
     fit-margin-left="0"
     fit-margin-top="0"
     showgrid="false"
     inkscape:document-rotation="0"
     inkscape:current-layer="g7577"
     inkscape:document-units="mm"
     inkscape:cy="126.70647"
     inkscape:cx="1.2488112"
     inkscape:zoom="2"
     inkscape:pageshadow="2"
     inkscape:pageopacity="0.0"
     borderopacity="1.0"
     bordercolor="#666666"
     pagecolor="#ffffff"
     id="base" />
  <metadata
     id="metadata5">
    <rdf:RDF>
      <cc:Work
         rdf:about="">
        <dc:format>image/svg+xml</dc:format>
        <dc:type
           rdf:resource="http://purl.org/dc/dcmitype/StillImage" />
        <dc:title></dc:title>
      </cc:Work>
    </rdf:RDF>
  </metadata>
  <g
     transform="translate(-99.969116,-197.87054)"
     id="layer1"
     inkscape:groupmode="layer"
     inkscape:label="Layer 1">
    <g
       id="g7569"
       transform="matrix(0.35277777,0,0,-0.35277777,111.83861,228.09336)">
      <path
         d="m 0,0 c 0,0 -1.314,1.812 -1.437,2.357 0,0 -0.838,-1.977 -1.213,-3.663 -0.953,1.429 -1.03,4.939 -1.237,6.478 0,0 -1.515,-2.498 -1.953,-3.258 -0.244,2.07 -0.535,3.645 -0.292,6.322 C -7.221,7.785 -7.696,7.213 -8.416,6.605 v 0.034 0.014 c 0,0.012 0,0.029 -10e-4,0.046 v 0.005 c -0.016,0.515 -0.166,2.974 -1.627,5.406 -0.374,-0.149 -0.755,-0.278 -1.147,-0.379 1.585,-2.457 1.603,-5.069 1.603,-5.106 l 0.15,-2.688 c 0,0 2.03,1.71 2.059,1.758 0.034,-1.138 0.387,-3.931 0.387,-3.931 0,0 0.651,-3.274 0.652,-3.296 v -0.002 l 1.71,2.732 c 0.197,-1.222 0.48,-2.398 1.015,-3.207 L -2.2,-4.305 c 0,0 0.482,1.922 1.186,3.664 0.031,-0.03 3.785,-4.761 10.39,-9.312 2.867,-1.98 5.701,-3.745 8.562,-5.339 0.963,-0.077 1.936,-0.124 2.915,-0.138 -3.671,1.912 -7.245,4.066 -10.877,6.529 C 6.265,-6.312 2.926,-3.475 0,0 m 47.693,30.346 c 0.586,-0.465 1.558,0.447 1.665,0.798 0.467,-0.089 1.048,0 1.353,0.361 0.287,0.395 0.198,0.907 0.06,1.312 -0.039,0.113 -0.082,0.222 -0.121,0.312 -0.162,0.172 -0.233,0.481 -0.569,0.362 -0.409,-0.28 -1.016,-0.309 -1.287,-0.897 -1.164,-0.034 -1.474,-0.761 -1.92,-1.292 -0.745,0.091 -1.081,-0.678 -1.507,-1.118 0.201,-0.207 0.83,-1.395 2.326,0.162 m 1.939,-9.025 c 0.239,-0.319 0.713,-0.301 1.073,-0.379 0.442,-0.003 1.049,-0.216 1.238,0.326 -0.078,0.07 -0.115,0.246 -0.213,0.288 -0.497,0.205 -1.203,0.244 -1.823,0.397 -0.08,0.017 -0.225,-0.068 -0.336,-0.124 -0.022,0.03 -0.042,0.061 -0.066,0.088 -0.024,0.029 -0.051,0.058 -0.084,0.081 -0.49,0.34 -1.097,0.545 -1.668,0.514 -0.066,-0.005 -0.135,-0.054 -0.201,-0.095 v 10e-4 c -0.004,0.012 -0.007,0.024 -0.009,0.036 -10e-4,0.005 -0.003,0.009 -0.005,0.014 -0.17,0.504 -0.588,0.657 -1.234,0.492 -0.126,-0.034 -0.175,-0.044 -0.346,-0.054 0.048,-0.087 0.111,-0.169 0.181,-0.244 0.387,-0.417 1.075,-0.66 1.573,-0.876 l -0.002,0.002 c 0.222,-0.177 0.556,-0.252 0.89,-0.378 0.334,-0.043 0.738,-0.275 1.032,-0.089 m -5.511,30.764 c 0.16,0.119 0.32,0.235 0.484,0.346 -0.053,-0.035 -0.107,-0.068 -0.158,-0.104 -0.111,-0.078 -0.217,-0.162 -0.326,-0.242 m 4.295,-0.283 h 0.001 c -0.156,0.121 -0.315,0.237 -0.475,0.353 -0.01,0.008 -0.021,0.013 -0.031,0.022 -0.158,0.114 -0.32,0.228 -0.484,0.343 0.191,-0.133 0.372,-0.268 0.558,-0.403 0.141,-0.105 0.291,-0.206 0.431,-0.315 m -1.333,0.948 c -0.015,0.01 -0.032,0.02 -0.047,0.03 -0.089,0.058 -0.178,0.116 -0.266,0.172 -0.067,0.043 -0.133,0.086 -0.2,0.127 -0.136,0.085 -0.276,0.17 -0.417,0.258 -0.075,0.045 -0.151,0.087 -0.227,0.132 -0.091,0.056 -0.182,0.107 -0.274,0.161 -0.007,0.002 -0.012,0.006 -0.016,0.007 0.16,-0.09 0.307,-0.182 0.46,-0.274 0.341,-0.203 0.672,-0.407 0.987,-0.613 M 42.84,25.189 c -0.338,2.33 -0.416,3.814 -0.3,6.55 0.214,2.946 0.375,6.116 -0.271,9.006 -0.324,2.149 -1.815,4.194 -1.815,4.194 -1.048,1.926 -3.042,3.524 -4.519,5.239 0.045,0.017 0.187,0.176 0.28,0.054 l 1.047,-0.86 c 0,0 1.091,-0.544 2.386,-2.002 l 1.143,-1.386 c 0,0 0.931,-1.07 1.822,-2.408 0.074,-0.861 0.167,-1.121 0.926,-1.646 0.954,-0.524 2.136,-1.188 3.203,-0.617 1.14,1.027 2.265,1.973 3.761,1.617 0.169,-0.056 0.178,-0.327 0.096,-0.475 -0.675,-0.965 -2.05,-0.442 -2.856,-1.188 -2.253,-1.589 -2.332,-1.423 -2.962,-1.328 -0.225,0.051 -1.098,0.704 -1.324,0.187 0.768,-2.731 0.412,-5.894 0,-8.672 -0.532,-2.962 0.179,-7.158 0.86,-10.481 0,0 0.039,-1 0.187,-1.431 -0.725,1.52 -1.209,2.754 -1.664,5.647 m -15.217,2.676 c 0.271,1.387 0.38,1.786 0.854,3.118 -1.104,-1.422 -2.039,-2.331 -2.705,-2.278 0.249,1.263 0.59,2.503 1.013,3.717 -1.287,-1.513 -2.577,-2.468 -3.957,-2.355 1.339,6.816 5.214,13.067 10.644,17.386 h 1.281 c 0.278,-0.291 0.556,-0.576 0.83,-0.854 0.304,-0.308 0.6,-0.61 0.883,-0.91 0.505,-0.533 0.959,-1.057 1.31,-1.568 0.108,-0.162 0.21,-0.32 0.297,-0.479 0.056,-0.104 0.119,-0.206 0.191,-0.301 0.237,-0.331 0.801,-1.251 1.123,-2.207 C 32.24,34.981 32.368,25.89 27.623,27.865 m 0.162,20.984 v 0.093 c 1.048,0.617 2.198,0.963 3.238,1.618 l -0.048,0.047 c -1.031,-0.266 -3.023,-0.898 -4.119,-1.333 -0.213,-0.144 -0.52,-0.308 -0.947,-0.49 -0.14,0.083 0.091,0.789 0.518,1.368 0.254,0.345 0.542,0.52 0.005,0.464 -2.188,-0.219 -0.696,0.787 -0.696,0.787 0,0 0.837,2.323 -0.487,1.928 -0.939,-0.28 -3.563,-2.369 -5.08,-2.456 0.806,1.702 5.278,5.392 6.943,6.215 -0.678,-0.319 -4.351,-1.962 -4.37,-0.568 0.452,0.22 6.183,3.7 7.083,3.849 0.429,0.071 0.869,0.115 1.305,0.09 0.131,-0.007 1.694,-0.437 1.763,-0.527 -0.231,0.3 -1.117,0.909 -1.03,1.035 0.377,0.55 3.659,-0.49 5.395,-1.837 0.251,-0.196 0.237,-0.609 0.246,-0.931 0.005,-0.256 -0.092,-0.854 -0.339,-1.007 -0.285,-0.177 -0.479,-0.329 -0.462,-0.719 0.199,-0.028 0.84,-0.3 0.99,-0.204 -0.714,-0.458 -1.856,-0.744 -2.094,-1.717 -0.123,0.362 -0.234,0.694 -0.477,0.994 -0.573,0.703 -1.32,1.097 -1.909,1.666 0.037,0.188 -3.529,-1.404 -4.903,-3.003 -0.599,-0.86 -1.244,-1.76 -1.34,-2.76 0.493,-0.772 0.678,-1.007 0.67,-1.15 1.353,1.274 3.122,2.253 2.625,1.551 l 0.046,-0.05 c 1.133,0.77 2.479,1.022 3.761,1.425 0.421,0.223 1.896,0.589 2.573,-0.234 0,0 -0.76,-0.267 -0.852,-0.313 -0.286,-0.082 -0.738,0.139 -0.842,-0.222 -0.059,-0.213 0.036,-0.547 0.195,-0.702 0.195,-0.188 0.533,-0.099 0.71,-0.312 0.079,-0.097 0.075,-0.171 0.116,-0.238 0.02,-0.038 0.051,-0.072 0.107,-0.111 0.215,-0.143 0.491,-0.145 0.706,-0.293 -0.055,-0.084 -0.271,-0.055 -0.372,0 -2.752,-0.288 -5.352,-0.934 -7.532,-2.572 -2.129,-1.225 -3.535,-3.277 -4.719,-5.29 -0.752,-0.795 -1.227,-1.743 -1.848,-2.575 0.976,3.066 2.879,5.503 5.227,7.819 0.29,0.186 0.663,0.472 0.244,0.665 m 18.94,-1.861 c 0.21,0.163 0.443,0.3 0.656,0.463 0.229,0.175 0.518,0.355 0.82,0.299 0.247,-0.046 0.242,-0.508 0.355,-0.684 0.146,-0.23 0.397,-0.368 0.592,-0.552 0.273,-0.249 1.093,-0.648 0.965,-1.089 -0.039,-0.134 -0.172,-0.201 -0.3,-0.179 -0.276,0.045 -0.52,0.251 -0.77,0.361 -0.445,0.2 -0.895,0.401 -1.346,0.586 -0.096,0.04 -1.35,0.469 -1.357,0.357 0.012,0.196 0.249,0.327 0.385,0.438 M 15.735,24.643 c -0.646,-0.573 -1.807,-0.357 -2.48,0 -0.9,0.533 -1.639,1.44 -2.667,1.617 l -0.292,0.189 c 0.836,-0.104 1.648,-0.292 2.34,-0.759 0.507,-0.208 0.946,-0.552 1.469,-0.712 0.44,-0.131 0.888,0.01 1.245,0.233 0.299,0.263 0.449,0.648 0.385,1.001 -0.207,0.255 -0.433,0.404 -0.769,0.339 -0.394,-0.235 -0.531,-0.637 -0.804,-0.954 0.093,0.841 0.487,1.654 1.14,2.188 0.76,-0.382 1.05,-1.217 1.05,-2.049 -0.067,-0.431 -0.198,-0.87 -0.617,-1.093 M 55.742,9.586 c 0.251,0.469 0.466,0.997 0.363,1.578 -0.007,0.046 -0.014,0.095 -0.025,0.143 -0.401,0.875 -0.82,1.73 -1.369,2.541 -0.002,0.005 -0.003,0.008 -0.007,0.014 -0.012,0.015 -0.024,0.032 -0.036,0.047 -0.066,0.101 -0.136,0.2 -0.208,0.3 -0.608,0.936 -0.712,2.376 -0.104,3.339 0.197,0.283 0.384,0.564 0.432,0.9 -0.263,0.887 -0.91,1.073 -1.733,1.307 -2.33,0.168 -4.477,0.617 -6.49,1.573 0.169,-0.69 0.44,-1.432 0.772,-2.204 0.215,-0.494 0.454,-1.002 0.707,-1.511 1.079,-2.172 2.425,-4.413 3.214,-6.166 l -1.232,1.462 c -0.7,0.861 -1.329,1.73 -1.891,2.616 -0.987,1.554 -1.768,3.171 -2.361,4.91 -0.151,0.443 -0.291,0.893 -0.417,1.353 -0.094,0.264 -0.174,0.544 -0.247,0.83 -0.67,2.638 -0.517,6.14 -0.465,8.89 l 0.093,0.144 c 0,0 3.656,3.166 7.86,3.909 0.083,0.486 0.216,0.944 0.431,1.376 0.066,0.187 0.06,0.349 0.007,0.501 -0.157,0.449 -0.738,0.768 -1.098,1.184 -0.307,0.351 -0.767,0.561 -1.015,1.897 0.107,0.226 0.68,1.066 1.092,1.595 0.852,1.412 2.129,1.235 2.672,2.789 0.053,0.152 0.075,0.304 0.072,0.454 -0.009,0.593 -0.394,1.15 -0.621,1.423 -0.003,0.003 -0.006,0.01 -0.01,0.013 -0.002,0.002 -0.002,0.002 -0.003,0.005 -0.019,0.021 -0.034,0.038 -0.05,0.055 v 10e-4 c -1.728,1.526 -3.043,2.794 -4.391,3.932 -3.146,-1.59 -4.319,-4.016 -4.527,-4.763 0,0 -1.513,-0.08 -1.949,-0.719 -0.062,-0.087 -0.114,-0.179 -0.166,-0.275 -0.712,0.986 -1.32,1.691 -1.337,1.71 l -0.178,0.216 -0.991,1.202 c -0.106,0.117 -0.208,0.226 -0.31,0.332 -0.59,0.62 -1.129,1.072 -1.55,1.379 0.972,1.234 2.073,2.387 3.422,3.253 0.278,0.06 0.525,0.191 0.772,0.327 0.207,0.148 0.186,0.141 0.503,0.264 0.292,0.12 0.804,0.314 1.226,0.491 -0.011,0.005 -0.019,0.01 -0.028,0.015 -1.162,0.657 -3.473,1.045 -4.148,1.393 -0.126,0.068 -0.208,0.159 -0.26,0.265 -0.275,0.573 0.384,1.615 0.384,2.216 0.154,0.631 0.035,1.198 -0.217,1.715 -0.115,0.233 -0.256,0.458 -0.41,0.671 -3.444,3.585 -7.261,6.43 -11.481,8.243 l -0.187,0.188 c 1.085,1.264 1.581,2.779 1.955,4.342 v -0.002 c -0.449,-0.74 -0.573,-1.205 -1.301,-1.823 l -0.048,0.046 c 0.263,2.621 -0.156,4.584 -1.177,6.726 0.223,-1.655 0.394,-3.582 0.048,-5.239 -0.179,-0.514 -0.207,-1.075 -0.525,-1.523 0.15,2.538 -0.419,4.45 -1.014,5.816 -0.333,0.767 -0.675,1.362 -0.905,1.795 -0.639,1.21 -2.181,2.108 -3.318,2.822 h -0.004 c 0.605,-0.496 1.045,-1.309 1.383,-2.177 0.494,-1.266 0.766,-2.651 1.017,-3.348 0.034,-0.101 0.07,-0.186 0.102,-0.256 0.488,-0.465 1.127,-0.6 1.544,-1.309 0.249,-0.425 0.419,-1.059 0.428,-2.101 -0.133,0.082 -0.205,0.22 -0.274,0.365 -0.011,0.02 -0.019,0.041 -0.031,0.063 -0.048,0.101 -0.099,0.199 -0.174,0.283 -0.056,0.197 -0.25,0.353 -0.341,0.537 -0.013,0.027 -0.024,0.053 -0.032,0.081 -0.982,1.123 -2.115,2.265 -3.293,3.097 0.486,-0.561 0.917,-1.346 1.525,-1.955 0.856,-1.27 1.354,-2.423 1.839,-3.691 0.203,-0.535 0.406,-1.091 0.629,-1.684 -0.008,-0.061 0.016,-0.116 0.048,-0.167 0.014,-0.022 0.029,-0.046 0.042,-0.065 0.06,-0.09 0.111,-0.177 0.013,-0.292 -0.084,-0.028 -0.121,0.066 -0.197,0.056 -1.477,2.888 -3.616,5.364 -6.515,6.748 -10e-4,0.002 -0.003,0.002 -0.005,0.002 2.536,-1.711 3.373,-4.073 4.757,-6.646 -0.043,-0.035 -0.063,-0.056 -0.074,-0.074 -0.025,0.031 -0.049,0.063 -0.075,0.094 0.028,-0.075 0.033,-0.117 0.007,-0.121 -0.462,-0.017 -0.595,0.014 -0.56,-0.065 0.004,-0.01 0.013,-0.024 0.024,-0.037 v -0.003 c -1.395,-0.008 -2.363,-0.255 -3.857,-0.459 -0.041,-0.007 -0.081,-0.014 -0.12,-0.017 l -0.008,-0.007 -0.102,-0.007 c -1.017,-0.134 -1.331,-0.129 -2.224,-0.409 0.001,0.002 0,0.002 0,0.002 -0.012,-0.003 -0.106,-0.043 -0.232,-0.096 -0.114,-0.065 -0.227,-0.114 -0.339,-0.144 -0.256,-0.108 -0.496,-0.212 -0.472,-0.198 -0.326,-0.058 -1.128,-0.494 -1.352,-0.561 -0.768,-0.23 -0.887,-0.267 -1.581,-0.708 -0.585,-0.372 -0.69,-0.455 -1.135,-0.826 l 0.007,-0.008 10e-4,-0.002 c -0.008,0 -0.015,0 -0.022,-0.003 -0.044,-0.036 -0.088,-0.075 -0.143,-0.118 -0.62,-0.518 -0.388,-0.504 -1.087,-0.916 0.005,-0.002 0.01,-0.006 0.017,-0.009 l -0.102,-0.041 c -1.226,-0.714 -2.13,-1.26 -2.526,-1.5 0.004,-0.01 0.012,-0.02 0.008,-0.032 C 8.167,62.889 7.846,62.639 7.525,62.388 7.413,62.276 7.284,62.155 7.094,62.022 7.018,61.969 6.905,61.893 6.779,61.804 6.486,61.572 6.193,61.338 5.901,61.098 5.554,60.669 5.143,60.371 4.843,59.892 4.743,59.735 4.608,59.607 4.507,59.452 4.332,59.178 4.216,59.028 4.086,58.728 4.066,58.682 4.047,58.632 4.027,58.584 3.988,58.287 3.894,57.978 3.804,57.675 3.775,57.562 3.744,57.444 3.729,57.315 3.662,56.79 3.623,56.308 3.609,55.851 3.626,55.846 3.644,55.834 3.662,55.809 3.65,55.715 3.7,55.594 3.615,55.517 c 0.025,-0.088 0,-0.263 0,-0.417 0.054,-1.289 0.354,-2.347 0.868,-3.411 0.013,-0.022 0.024,-0.045 0.037,-0.068 0.001,0 0.001,-0.001 0.001,-0.003 l 0.048,-0.05 C 4.565,51.56 4.561,51.553 4.557,51.544 4.707,51.245 4.871,50.946 5.053,50.642 5.136,50.5 5.232,50.358 5.326,50.217 5.346,50.19 5.365,50.157 5.385,50.126 5.392,50.115 5.4,50.101 5.407,50.087 5.51,49.943 5.614,49.796 5.721,49.653 H 5.723 C 5.779,49.575 5.84,49.501 5.9,49.426 5.953,49.36 6.004,49.29 6.058,49.225 6.289,48.944 6.53,48.676 6.774,48.426 6.753,48.414 6.72,48.373 6.684,48.32 L 6.839,47.719 C 6.484,46.606 5.941,45.428 6.172,44.242 l 0.002,-10e-4 c 0.16,0.775 0.651,1.893 1.062,2.554 l 0.002,0.003 c 0.037,-0.318 -0.696,-3.914 -2.102,-8.56 0.719,0.149 1.948,2.864 2.246,3.375 0.002,0 0.004,10e-4 0.004,10e-4 0,0 -1.719,-5.456 -2.136,-7.065 v -0.004 c 2.577,2.214 2.659,7.443 2.886,9.319 0.168,-0.486 0.17,-5.804 0.462,-6.202 v -10e-4 c 0.291,1.301 1.24,5.511 0.288,8.887 0.243,-0.111 1.588,-1.218 1.588,-1.218 0.054,-0.041 0.104,-0.093 0.151,-0.147 0.006,-0.007 0.011,-0.012 0.016,-0.019 0.003,-0.001 0.005,-0.003 0.008,-0.008 0.029,-0.03 0.06,-0.058 0.092,-0.094 0.031,-0.031 0.063,-0.065 0.096,-0.099 0.007,-0.008 0.012,-0.012 0.018,-0.021 0.556,-0.606 1.48,-1.864 2.473,-4.253 h 0.002 c 0.002,0.005 0.003,0.012 0.007,0.019 0.519,-0.742 1.259,-1.452 1.612,-2.313 0.032,-0.046 0.624,-0.884 0.714,-0.936 0.01,-0.006 0.022,-0.017 0.032,-0.028 l 0.002,-0.002 c 0.038,-0.043 0.075,-0.114 0.108,-0.186 l 0.013,-0.017 c -0.002,-0.003 -0.002,-0.003 -0.002,-0.005 0.039,-0.091 0.069,-0.172 0.07,-0.172 0,0 0.109,-0.145 0.237,-0.326 0.166,-0.237 0.36,-0.536 0.387,-0.683 0.07,-0.14 -0.097,-0.263 -0.029,-0.431 -0.533,-1.61 -0.702,-3.38 -0.956,-5.101 -0.005,0.007 -0.014,0.014 -0.021,0.021 -0.071,0.075 -0.143,0.148 -0.216,0.214 -0.567,0.513 -1.23,0.798 -1.951,0.953 -0.131,0.054 -0.223,0.131 -0.293,0.22 -0.201,0.255 -0.208,0.618 -0.418,0.874 -2.675,-5.346 -3.853,-1.9 -6.107,-8.086 1.136,-1.024 1.448,-0.634 3.861,-1.055 0.642,-0.092 1.243,-0.404 1.803,-0.791 0.591,-0.407 1.14,-0.898 1.648,-1.3 0.329,-0.128 0.643,-0.217 0.944,-0.271 1.629,-0.288 2.904,0.44 4.279,1.317 -0.068,-1 -0.845,-1.97 -0.845,-1.97 0.196,-0.954 1.166,-3.255 1.653,-4.088 0.416,-0.987 1.104,-1.929 1.936,-2.776 0.832,-0.846 1.803,-1.592 2.786,-2.182 1.974,-1.094 4.248,-1.487 6.624,-1.617 l 0.046,0.044 c 0.936,-0.15 2.097,-0.083 3.099,-0.231 l 5.716,-0.626 c 3.659,-0.591 7.29,-1.404 11.247,-1.143 0.322,0.018 0.217,-0.006 0.51,0.042 l 0.341,0.05 c 0.046,0 0.123,0.018 0.141,-0.044 C 51.826,7.694 49.215,7.28 48.266,7.06 47.398,6.863 46.583,6.673 45.486,6.517 44.563,6.384 36.609,4.962 36.304,4.778 35.861,4.52 35.5,4.092 35.188,3.688 35.007,3.456 34.851,3.209 34.684,2.967 34.246,2.33 33.932,1.614 33.211,1.241 32.013,0.62 30.753,0.94 29.646,1.586 c -0.116,0.07 -0.302,0.22 -0.544,0.44 -0.003,0.003 -0.008,0.007 -0.012,0.01 -0.078,0.072 -0.16,0.149 -0.249,0.232 -2.609,2.48 -9.82,10.638 -11.288,13.201 -0.349,0.613 -0.763,1.186 -0.905,1.429 -0.121,0.21 -0.283,0.396 -0.467,0.544 -0.035,0.027 -0.072,0.057 -0.109,0.084 0,0 -0.002,0.001 -0.003,0.001 -0.387,0.27 -0.859,0.387 -1.304,0.26 -0.547,-0.158 -2.58,0.277 -3.729,1.557 -0.265,0.297 -0.484,0.637 -0.625,1.026 -0.019,0.051 -0.057,0.095 -0.108,0.136 C 9.944,20.782 8.896,20.813 8.792,20.842 8.707,20.521 8.524,20.233 8.367,19.944 7.976,19.22 7.195,17.662 6.805,16.938 6.37,16.132 5.699,15.574 5.209,14.809 4.969,14.433 4.804,14.141 4.761,13.822 3.981,13.889 3.192,13.916 2.396,13.889 1.933,13.875 1.474,13.834 1.016,13.785 0.852,13.789 0.688,13.783 0.525,13.78 l -0.454,2.093 c -0.235,0.005 -0.463,0.005 -0.69,-0.004 -1.002,-0.044 -1.944,-0.237 -2.873,-0.598 h -0.002 c -0.368,0.35 -0.862,0.808 -1.475,1.352 -0.197,-0.367 -0.42,-0.715 -0.658,-1.05 0.673,-0.544 1.227,-1.012 1.656,-1.384 0.085,-0.073 0.165,-0.145 0.241,-0.211 0.915,0.398 1.85,0.625 2.849,0.707 0.227,0.019 0.455,0.03 0.692,0.032 l 0.542,-2.114 c 0.613,0.097 1.23,0.171 1.851,0.224 3.22,0.261 6.949,-0.923 9.527,-2.406 0,0 4.863,-2.699 7.819,-5.119 0.453,-0.389 0.609,-0.413 0.973,-0.836 0,0 -3.788,-1.673 -10.114,-1.612 4.807,-1.593 11.871,-0.165 11.871,-0.165 2.62,-1.51 3.51,-2.209 6.05,-3.8 l 3.091,-1.945 c -1.106,0.104 -2.682,-1.329 -5.756,-2.452 1.133,-0.148 3.1,-0.258 4.799,-0.096 l 1.985,0.354 0.297,0.052 c -0.017,0.936 0.082,1.849 0.525,2.71 0.123,0.235 0.262,0.46 0.405,0.685 -0.01,0.015 -0.024,0.031 -0.037,0.046 -0.491,-0.269 -0.823,-0.75 -1.19,-1.174 v 0.835 l -0.037,0.02 -0.057,0.036 c 0.103,0.169 0.21,0.327 0.302,0.455 0.466,0.643 1.06,1.179 1.663,1.69 0.622,0.522 1.24,1.084 1.886,1.575 4.538,3.443 10.122,4.399 15.577,5.624 1.507,0.307 2.788,1.169 3.959,2.282 M 44.599,54.203 v 0 c 0.085,-0.044 0.167,-0.089 0.25,-0.135 -0.083,0.046 -0.163,0.091 -0.25,0.135 m -5.455,-76.937 c -1.756,0.516 -3.454,1.062 -5.106,1.634 -3.986,-0.959 -8.143,-1.468 -12.419,-1.468 h -0.001 c -13.833,0 -26.448,5.317 -35.911,14.015 -0.118,-0.033 -0.252,-0.045 -0.392,-0.045 -0.414,0 -0.857,0.118 -0.944,0.165 -0.909,0.553 -1.742,1.255 -2.575,1.957 -2.048,1.844 -1.178,0.725 -2.531,2.783 -0.049,0.034 -0.104,0.047 -0.165,0.049 -0.147,0.002 -0.324,-0.063 -0.52,-0.069 -0.17,-0.006 -0.354,0.028 -0.545,0.184 -1.9,2.16 -2.553,3.847 -3.161,6.617 -0.103,0.479 -0.459,0.537 -0.89,1.009 -0.487,1.037 -1.526,5.005 -1.526,5.005 -1.46,3.759 -2.348,7.757 -3.098,11.818 -10e-4,0.036 -10e-4,0.074 -0.003,0.108 -0.359,1.978 -0.607,3.994 -0.74,6.041 -0.003,-0.017 -0.008,-0.032 -0.012,-0.049 0,0.003 -0.001,0.003 -0.001,0.005 V 27.02 c -0.384,2.022 -0.148,3.279 -0.101,5.283 0.046,0.456 -0.049,0.821 -0.095,1.435 -0.3,3.884 0.884,8.473 1,9.19 0.188,0.808 0.319,2.942 0.619,4.153 1.552,4.322 5.448,11.609 6.295,13.147 0.768,1.254 2.947,4.442 2.947,4.442 1.532,2.262 5.18,6.422 7.953,7.807 0.874,0.438 1.5,1.365 1.677,1.459 -0.15,0.131 2.621,2.254 4.434,3.874 1.592,0.991 3.117,2.106 4.949,2.525 1.798,0.571 3.734,0.862 5.765,0.862 1.885,0.875 4.755,1.289 7.131,1.437 3.376,0.675 6.867,1.033 10.44,1.033 29.289,0 53.117,-23.83 53.117,-53.12 0,-12.21 -3.955,-23.256 -10.746,-32.13 -0.704,-0.917 -1.435,-1.81 -2.197,-2.681 -0.542,-0.619 -1.099,-1.225 -1.67,-1.82 -0.472,-0.489 -0.955,-0.973 -1.445,-1.445 -0.493,-0.476 -0.994,-0.939 -1.503,-1.394 -0.365,-0.324 -0.732,-0.643 -1.103,-0.958 -0.373,-0.314 -0.75,-0.625 -1.132,-0.931 -0.813,-0.649 -1.646,-1.279 -2.5,-1.884 -0.463,-0.329 -0.932,-0.651 -1.406,-0.967 -0.124,-0.08 -0.247,-0.16 -0.371,-0.242 -0.295,-0.192 -0.592,-0.381 -0.891,-0.569 -0.06,-0.035 -0.118,-0.075 -0.178,-0.114 -0.243,-0.15 -0.487,-0.298 -0.733,-0.445 l -1.514,-1.13 c -1.422,-0.76 -1.384,-0.864 -2.727,-1.506 1.609,-0.068 4.91,1.859 6.552,2.292 0.848,-1.206 2.983,-2.292 2.983,-2.292 -2.014,-0.041 -2.722,-0.714 -3.422,-1.069 1.203,-0.366 3.597,-0.47 4.838,-0.376 2.342,-2.27 6.453,-5.176 6.453,-5.176 0,0 -10.998,-1.931 -22.879,1.556 m 24.039,0.082 c -0.041,0.029 -9.489,7.571 -10.004,8.039 14.625,10.265 23.564,27.231 23.564,45.16 0,30.396 -24.728,55.124 -55.124,55.124 -3.568,0 -7.159,-0.351 -10.673,-1.043 -1.81,-0.118 -4.965,-0.459 -7.324,-1.43 -2.054,-0.039 -4.026,-0.351 -5.87,-0.928 -1.849,-0.442 -3.328,-1.386 -4.76,-2.303 -0.238,-0.154 -0.479,-0.305 -0.719,-0.457 -0.097,-0.059 -0.189,-0.129 -0.274,-0.204 -0.703,-0.627 -1.577,-1.352 -2.345,-1.989 -1.324,-1.097 -2.033,-1.684 -2.4,-2.18 -0.042,-0.048 -0.083,-0.094 -0.128,-0.141 -0.199,-0.222 -0.531,-0.592 -0.802,-0.726 -3.395,-1.698 -7.338,-6.442 -8.712,-8.468 -0.091,-0.132 -2.216,-3.247 -2.999,-4.528 -0.016,-0.027 -0.031,-0.053 -0.047,-0.079 -0.044,-0.083 -4.645,-8.478 -6.426,-13.437 -0.025,-0.063 -0.044,-0.13 -0.061,-0.195 -0.198,-0.807 -0.322,-1.857 -0.43,-2.781 -0.066,-0.543 -0.138,-1.158 -0.192,-1.402 -0.012,-0.041 -0.02,-0.087 -0.027,-0.13 -0.016,-0.092 -0.052,-0.257 -0.101,-0.482 -0.358,-1.677 -1.196,-5.601 -0.92,-9.187 0.019,-0.234 0.041,-0.436 0.063,-0.624 0.028,-0.233 0.044,-0.37 0.036,-0.452 -0.006,-0.052 -0.009,-0.105 -0.01,-0.158 -0.011,-0.493 -0.035,-0.939 -0.057,-1.364 -0.071,-1.334 -0.136,-2.598 0.193,-4.337 0.005,-0.027 0.012,-0.052 0.018,-0.08 0.135,-1.878 0.372,-3.773 0.702,-5.649 l 0.007,-0.138 c 0.007,-0.073 0.016,-0.15 0.028,-0.221 0.678,-3.677 1.583,-7.978 3.159,-12.075 0.235,-0.893 1.108,-4.141 1.619,-5.238 0.155,-0.329 0.392,-0.602 0.678,-0.8 0.801,-3.001 2.013,-5.397 3.685,-7.299 0.392,-0.448 0.946,-0.681 1.507,-0.681 0.025,0 0.05,0.001 0.076,0.001 0.801,-0.967 1.622,-1.786 2.344,-2.433 0.015,-0.017 0.042,-0.039 0.059,-0.054 0.874,-0.735 1.777,-1.497 2.812,-2.126 0.324,-0.196 0.685,-0.293 1.043,-0.293 0.129,0 0.261,0.014 0.388,0.039 10.079,-9.066 23.23,-14.174 36.86,-14.174 4.114,0 8.252,0.469 12.303,1.4 1.571,-0.537 3.099,-1.023 4.657,-1.481 4.908,-1.442 10.224,-2.173 15.8,-2.173 4.729,0 7.861,0.54 7.993,0.564 0.797,0.14 1.431,0.746 1.61,1.536 0.175,0.79 -0.138,1.61 -0.799,2.077"
         style="fill:#ffffff;fill-opacity:1;fill-rule:nonzero;stroke:none"
         id="path7571" />
    </g>
    <g
       id="g7573"
       transform="matrix(0.35277777,0,0,-0.35277777,109.48491,221.18802)">
      <path
         d="m 0,0 c -0.721,-0.723 -1.605,-1.417 -1.776,-1.546 0,0 -0.007,-0.005 -0.005,-0.005 L -1.955,-1.694 -3.93,0.274 C -4.078,0.1 -4.434,-0.309 -4.896,-0.774 c -0.613,-0.61 -1.631,-1.36 -1.631,-1.36 0,0 -1.259,1.259 -1.263,1.259 0,0 0.835,-0.042 1.947,1.071 l 0.001,0.001 c 0.229,0.21 0.774,0.788 0.956,1.04 L -5.629,1.98 C -6.031,1.728 -8.015,0.484 -8.015,0.484 -8.705,0.06 -9.249,0.548 -9.252,0.554 h -10e-4 l -0.002,0.001 -1.011,1.011 -1.157,-1.157 1.062,-1.064 0.155,-0.155 c 0,0 0.329,-0.34 0.656,-0.281 0.33,0.06 0.584,0.101 0.584,0.101 l -1.993,-1.994 -0.018,-0.011 c 0,0 0.045,0.213 0.099,0.556 0.057,0.346 -0.244,0.634 -0.244,0.634 l -0.161,0.16 -1.096,1.1 -0.271,-0.273 c -0.247,-0.249 -0.411,-0.546 -0.413,-0.549 l -0.115,-0.218 -0.232,0.767 -0.179,0.179 -0.723,0.248 0.181,0.096 c 0.029,0.015 0.309,0.177 0.546,0.414 l 0.27,0.271 -1.22,1.218 c 0,0 -0.225,0.188 -0.458,0.157 l -0.465,-0.088 0.151,0.202 c 0.009,0.014 0.975,1.321 1.779,2.127 0.639,0.638 1.761,1.512 1.775,1.522 l 0.067,0.05 1.212,-1.205 c 0,0 -0.44,-0.048 -0.912,-0.314 -0.121,-0.07 -0.344,-0.198 -0.956,-0.762 -0.441,-0.402 -0.748,-0.746 -0.973,-1 l 0.951,-0.951 c 0.539,0.537 3.797,3.799 3.799,3.799 0,0 0.269,0.226 0.29,0.451 0.006,0.002 0.772,0.103 1.407,0.469 l 0.373,0.22 0.002,0.002 -0.201,-0.353 C -7.07,5.298 -7.151,4.453 -7.151,4.453 -7.401,4.432 -7.628,4.202 -7.628,4.202 l -1.677,-1.673 0.728,-0.726 0.102,0.058 c 0.211,0.135 2.274,1.431 2.274,1.431 0.032,0.021 0.77,0.458 1.222,0.01 l 3.152,-3.154 c 0.206,0.186 0.46,0.419 0.852,0.82 0.254,0.262 0.525,0.557 0.679,0.724 -0.587,0.584 -3.001,2.996 -3.198,3.192 -0.139,0.145 -0.427,0.199 -0.535,0.203 l -0.468,0.014 1.375,1.373 4,-4.001 C 1.146,2.203 1.46,2.263 1.467,2.263 l 0.452,0.053 c 0,0 -0.359,-0.461 -0.358,-0.461 C 1.561,1.855 0.643,0.641 0,0 m -7.016,10.003 c 2.483,0.002 4.707,-1.102 6.219,-2.837 -1.449,1.263 -3.341,2.031 -5.414,2.031 -2.095,0.004 -4,-0.785 -5.454,-2.067 l -0.806,0.805 c 1.453,1.283 3.362,2.07 5.455,2.068 m 34.762,-37.461 c 13.255,-6.096 22.263,-7.693 25.138,-6.82 l -2.433,1.237 c -0.111,0.06 -0.22,0.123 -0.333,0.189 -0.075,0.044 -0.153,0.094 -0.231,0.144 -0.034,0.02 -0.069,0.041 -0.103,0.062 -0.103,0.065 -0.207,0.133 -0.313,0.203 -0.009,0.007 -0.017,0.01 -0.026,0.017 -0.114,0.077 -0.228,0.157 -0.346,0.237 0,0 -10e-4,0 -10e-4,0.002 -0.019,0.013 -0.041,0.027 -0.06,0.041 -0.087,0.061 -0.176,0.124 -0.264,0.187 -0.043,0.031 -0.084,0.063 -0.127,0.094 -0.069,0.051 -0.141,0.102 -0.21,0.155 -0.045,0.032 -0.091,0.065 -0.135,0.097 -0.084,0.061 -0.169,0.126 -0.254,0.189 -0.094,0.07 -0.188,0.142 -0.285,0.215 -0.039,0.027 -0.078,0.058 -0.119,0.088 -0.155,0.117 -0.313,0.234 -0.476,0.358 -0.01,0.007 -0.018,0.016 -0.03,0.021 -0.273,0.206 -0.557,0.419 -0.859,0.64 -0.038,0.03 -0.077,0.059 -0.116,0.086 -0.111,0.082 -0.225,0.165 -0.341,0.249 -0.042,0.032 -0.087,0.064 -0.131,0.095 -0.157,0.113 -0.316,0.229 -0.477,0.344 -0.004,0 -0.006,0.002 -0.006,0.002 -0.16,0.114 -0.323,0.228 -0.49,0.346 -0.051,0.034 -0.102,0.07 -0.155,0.105 -0.128,0.087 -0.257,0.178 -0.389,0.267 -0.056,0.037 -0.109,0.073 -0.163,0.11 -0.184,0.125 -0.372,0.251 -0.566,0.377 -1.176,0.768 -1.87,1.269 -3.02,2.105 -1.331,-0.275 -2.784,-0.401 -4.282,-0.432 -0.263,-0.005 -0.527,-0.006 -0.791,-0.006 h -0.005 c -0.263,0.001 -0.527,0.003 -0.793,0.008 h -0.012 c -0.26,0.007 -0.523,0.014 -0.785,0.024 -0.009,0.002 -0.016,0.002 -0.024,0.002 -0.259,0.01 -0.518,0.022 -0.777,0.034 -0.014,0.002 -0.026,0.002 -0.039,0.005 -0.254,0.014 -0.508,0.027 -0.761,0.046 -0.02,0 -0.039,0.002 -0.059,0.003 -0.247,0.018 -0.493,0.036 -0.737,0.057 -0.03,10e-4 -0.059,0.003 -0.088,0.005 -0.235,0.02 -0.471,0.041 -0.704,0.061 -0.043,0.003 -0.085,0.009 -0.128,0.012 -0.22,0.02 -0.438,0.043 -0.656,0.065 -0.066,0.007 -0.131,0.012 -0.198,0.02 -0.192,0.021 -0.383,0.039 -0.572,0.062 -0.121,0.011 -0.239,0.027 -0.356,0.039 -0.137,0.015 -0.273,0.031 -0.409,0.046 -0.254,0.03 -0.506,0.059 -0.753,0.09 -0.331,0.038 -3.269,0.76 -3.506,0.981 2.797,-0.741 7.192,0.607 10.032,1.959 l 0.999,0.582 c -1.99,1.373 -4.661,2.934 -6.69,4.256 0,0 -4.29,-1.065 -8.366,-0.315 -3.441,0.622 -8.208,2.829 -8.208,2.829 0,0 4.324,-0.905 12.034,0.76 -2.744,2.292 -4.582,3.539 -7.834,5.343 -3.954,2.51 -7.739,1.809 -11.862,1.11 L 3.973,-8.1 c 0.664,1.148 1.271,1.746 2.525,2.348 -1.551,0.043 -2.762,-0.38 -4.013,-1.188 -0.21,0.203 -0.401,0.418 -0.607,0.624 0,0 -0.535,0.547 -1.541,1.461 0.247,0.272 0.479,0.56 0.696,0.858 C 1.036,-3.999 1.038,-4 1.043,-4.002 h 0.002 c 0.238,0.336 0.46,0.684 0.658,1.05 0.767,1.41 1.201,3.025 1.201,4.743 0,3.607 -1.921,6.772 -4.797,8.519 -1.505,0.914 -3.274,1.442 -5.166,1.442 -5.501,0 -9.961,-4.46 -9.961,-9.96 0.002,-4.125 2.511,-7.668 6.084,-9.18 1.193,-0.504 2.502,-0.782 3.877,-0.782 0.878,0 1.728,0.112 2.538,0.327 h 0.001 c 0.393,0.101 0.774,0.23 1.147,0.378 -0.284,0.472 -0.616,0.944 -1.008,1.4 -0.828,-0.282 -1.711,-0.437 -2.635,-0.437 -2.484,-0.003 -4.707,1.103 -6.218,2.837 1.448,-1.262 3.339,-2.034 5.414,-2.032 1.03,-0.002 2.016,0.197 2.924,0.543 0.62,0.234 1.203,0.535 1.742,0.905 0.276,-0.254 0.555,-0.516 0.838,-0.78 0.407,-0.387 0.818,-0.779 1.213,-1.166 h 0.002 C 0.668,-7.923 2.165,-9.5 2.165,-9.5 c -0.18,-1.356 0.034,-2.855 0.034,-2.855 0.71,0.88 1.523,1.029 1.523,1.029 0.095,-1.064 0.486,-2.27 0.486,-2.27 0.136,0.644 0.7,1.157 0.7,1.157 7.683,-7.742 16.814,-14.044 26.671,-19.256 15.047,-7.987 27.35,-10.434 27.35,-10.434 l 0.104,0.165 c 0,0 -14.465,4.069 -31.544,14.441 z m 7.403,38.867 c 1.823,5.114 5.08,9.716 9.298,13.138 -0.349,0.511 -0.804,1.034 -1.309,1.568 -4.438,-3.343 -7.849,-8.022 -9.681,-13.267 -0.423,-1.212 -0.764,-2.454 -1.013,-3.717 0.667,-0.053 1.6,0.857 2.705,2.278 M 48.2,27.381 c 1.787,2.147 3.986,3.901 6.457,5.163 -0.186,0.133 -0.366,0.268 -0.559,0.401 0,0 -0.002,0.002 -0.004,0.002 h -10e-4 c 0,10e-4 -0.002,0.003 -0.004,0.003 -0.003,0.004 -0.008,0.007 -0.012,0.008 -0.105,0.074 -0.213,0.146 -0.322,0.217 -0.315,0.206 -0.646,0.411 -0.986,0.614 C 52.261,33.496 51.76,33.188 51.277,32.856 51.114,32.746 50.954,32.63 50.792,32.51 50.606,32.377 50.42,32.241 50.238,32.1 50.093,31.989 49.951,31.87 49.805,31.752 49.619,31.601 49.428,31.447 49.248,31.289 49.12,31.176 48.996,31.063 48.873,30.951 48.678,30.775 48.489,30.6 48.302,30.417 48.191,30.31 48.082,30.198 47.973,30.089 47.785,29.895 47.598,29.702 47.412,29.504 47.31,29.39 47.213,29.276 47.109,29.162 47.039,29.08 46.969,28.997 46.897,28.915 47,28.809 47.102,28.7 47.208,28.583 Z M 33.189,59.68 c -0.027,0.159 -0.06,0.326 -0.094,0.486 -0.051,0.242 -0.111,0.47 -0.174,0.637 -0.015,0.039 -0.028,0.075 -0.044,0.106 l -0.453,0.954 c -0.607,0.05 -1.218,0.085 -1.834,0.115 0.414,-0.28 0.849,-0.599 1.241,-0.943 0.63,-0.549 1.07,-1.012 1.358,-1.355 m -0.702,2.18 0.702,-0.731 c 0.39,-0.406 1.002,-1.289 1.514,-2.149 0.081,-0.138 0.161,-0.276 0.236,-0.413 h 0.002 c 23.39,-3.239 41.401,-23.311 41.401,-47.592 0,-18.356 -10.295,-34.307 -25.423,-42.399 0.926,-0.543 1.955,-1.1 3.148,-1.682 15.123,8.864 25.28,25.285 25.28,44.081 0,26.783 -20.624,48.748 -46.86,50.885 m -4.195,-98.938 c -12.476,0 -23.839,4.753 -32.378,12.548 0.008,-0.213 0.037,-0.42 0.105,-0.609 0.27,-0.734 0.602,-1.251 0.667,-2.081 0.034,-0.43 0,-0.881 0,-1.312 0,-0.223 -0.019,-0.397 -0.052,-0.553 8.702,-6.886 19.699,-10.998 31.658,-10.999 2.99,0 5.919,0.26 8.769,0.753 -1.897,0.74 -3.741,1.525 -5.547,2.364 -1.065,-0.072 -2.139,-0.111 -3.222,-0.111"
         style="fill:#ceb888;fill-opacity:1;fill-rule:nonzero;stroke:none"
         id="path7575" />
    </g>
    <g
       id="g7577"
       transform="matrix(0.35277777,0,0,-0.35277777,107.29349,217.94324)">
      <path
         d="m 0,0 c 2.074,0 3.966,-0.769 5.414,-2.033 -1.511,1.737 -3.734,2.841 -6.218,2.839 -2.093,0.002 -4,-0.785 -5.455,-2.069 l 0.806,-0.804 C -4,-0.786 -2.093,0.001 0,0 m -6.851,-10.566 c 0.004,0.005 0.165,0.302 0.413,0.55 l 0.271,0.273 1.095,-1.099 0.162,-0.16 c 0,0 0.3,-0.29 0.246,-0.636 -0.057,-0.341 -0.101,-0.555 -0.101,-0.555 l 0.017,0.01 1.994,1.994 c 0,0 -0.254,-0.041 -0.583,-0.099 -0.329,-0.06 -0.658,0.281 -0.658,0.281 l -0.154,0.153 -1.062,1.065 1.157,1.158 1.011,-1.011 0.001,-0.004 h 0.002 c 0.005,-0.003 0.547,-0.494 1.237,-0.067 0,0 1.984,1.242 2.386,1.494 L 1.326,-7.96 C 1.144,-8.212 0.598,-8.792 0.37,-9.001 L 0.368,-9.003 c -1.111,-1.113 -1.944,-1.07 -1.944,-1.07 0.001,0 1.261,-1.26 1.261,-1.26 0,0 1.019,0.751 1.631,1.362 0.461,0.463 0.818,0.872 0.966,1.048 l 1.975,-1.97 0.174,0.144 c -0.002,0 0.005,0.004 0.005,0.004 0.17,0.131 1.055,0.825 1.776,1.547 0.642,0.641 1.561,1.855 1.561,1.855 -0.002,0 0.358,0.46 0.358,0.46 L 7.679,-6.936 c -0.007,0 -0.32,-0.058 -0.59,0.209 L 3.09,-2.725 1.714,-4.097 2.183,-4.112 C 2.291,-4.114 2.579,-4.168 2.72,-4.313 2.914,-4.511 5.329,-6.921 5.916,-7.505 5.762,-7.672 5.491,-7.967 5.237,-8.229 4.845,-8.63 4.591,-8.865 4.385,-9.049 l -3.153,3.153 c -0.451,0.449 -1.19,0.01 -1.22,-0.011 -0.002,0 -2.064,-1.295 -2.275,-1.429 l -0.102,-0.06 -0.728,0.728 1.677,1.673 c 0,0 0.228,0.23 0.477,0.25 0,0 0.08,0.844 0.457,1.481 l 0.201,0.353 -0.002,-0.003 -0.373,-0.22 c -0.636,-0.365 -1.401,-0.466 -1.407,-0.467 -0.021,-0.227 -0.291,-0.452 -0.291,-0.452 -10e-4,0 -3.259,-3.261 -3.798,-3.798 L -7.103,-6.9 c 0.225,0.254 0.532,0.598 0.973,1 0.612,0.564 0.835,0.692 0.956,0.76 0.472,0.267 0.914,0.314 0.914,0.314 l -1.214,1.206 -0.068,-0.051 c -0.012,-0.01 -1.135,-0.883 -1.774,-1.522 -0.805,-0.804 -1.77,-2.111 -1.779,-2.125 l -0.152,-0.204 0.465,0.09 c 0.234,0.031 0.459,-0.157 0.459,-0.157 l 1.22,-1.218 -0.271,-0.271 C -7.611,-9.317 -7.89,-9.477 -7.919,-9.492 l -0.181,-0.096 0.723,-0.248 0.179,-0.18 0.231,-0.767 z M 50.957,14.871 C 50.87,15.029 50.768,15.188 50.66,15.348 46.441,11.926 43.184,7.326 41.361,2.212 40.887,0.879 40.778,0.48 40.507,-0.907 c 4.744,-1.977 4.617,7.117 11.764,13.269 -0.322,0.956 -0.886,1.875 -1.123,2.207 -0.072,0.096 -0.135,0.198 -0.191,0.302 M 39.668,3.65 c 1.832,5.244 5.244,9.924 9.682,13.267 -0.285,0.299 -0.579,0.602 -0.883,0.909 -0.274,0.279 -0.552,0.564 -0.83,0.855 H 46.355 C 40.926,14.361 37.051,8.112 35.711,1.293 c 1.381,-0.11 2.671,0.844 3.957,2.357 m 14.743,14.532 0.177,-0.215 c 0.017,-0.019 0.626,-0.724 1.338,-1.709 0.052,0.095 0.104,0.187 0.166,0.274 0.436,0.639 1.949,0.719 1.949,0.719 0.208,0.747 1.38,3.173 4.526,4.762 v 0.003 c -0.18,0.15 -0.361,0.3 -0.543,0.448 -0.034,0.028 -0.068,0.057 -0.103,0.084 -0.17,0.136 -0.342,0.271 -0.518,0.406 -0.007,0.006 -0.011,0.01 -0.018,0.013 -0.024,0.019 -0.046,0.038 -0.07,0.054 -0.003,0.004 -0.008,0.007 -0.012,0.009 H 61.301 61.3 c -0.14,0.109 -0.29,0.21 -0.431,0.316 -2.472,-1.262 -4.67,-3.015 -6.458,-5.164 m 4.106,6.685 c -0.059,0.033 -0.118,0.065 -0.176,0.099 -0.102,0.056 -0.203,0.116 -0.31,0.172 -0.002,0.002 -0.005,0.004 -0.009,0.007 -0.095,0.05 -0.194,0.101 -0.289,0.152 -0.084,0.044 -0.164,0.09 -0.251,0.135 C 57.063,25.254 56.55,25.06 56.257,24.94 55.94,24.816 55.96,24.825 55.754,24.677 55.507,24.54 55.26,24.407 54.982,24.349 c -1.35,-0.867 -2.45,-2.021 -3.422,-3.253 0.421,-0.307 0.96,-0.759 1.549,-1.38 0.072,0.081 0.141,0.165 0.212,0.248 0.103,0.115 0.2,0.229 0.304,0.343 0.185,0.196 0.372,0.39 0.56,0.583 0.109,0.11 0.218,0.221 0.329,0.33 0.187,0.183 0.376,0.358 0.57,0.532 0.123,0.113 0.248,0.227 0.375,0.339 0.181,0.159 0.372,0.31 0.56,0.464 0.144,0.117 0.286,0.235 0.43,0.347 0.183,0.14 0.368,0.277 0.556,0.411 0.109,0.08 0.215,0.164 0.326,0.242 0.051,0.036 0.105,0.07 0.158,0.104 0.484,0.332 0.983,0.639 1.491,0.932 -0.153,0.092 -0.3,0.182 -0.46,0.275 -0.001,0.001 -0.003,0.001 -0.003,0.001 m 5.099,-72.376 c 0.7,0.352 1.407,1.026 3.422,1.067 0,0 -2.136,1.087 -2.983,2.294 -1.642,-0.435 -4.944,-2.361 -6.553,-2.294 1.344,0.644 1.306,0.746 2.727,1.508 l 1.515,1.13 0.762,0.465 c -0.772,0.34 -1.566,0.712 -2.227,1.036 -1.193,0.581 -2.222,1.138 -3.148,1.682 -0.739,0.434 -1.411,0.862 -2.045,1.288 0.002,0 0.002,0.002 0.002,0.002 4.925,2.476 9.344,5.806 13.062,9.799 7.65,8.218 12.344,19.223 12.344,31.308 0,21.815 -15.268,40.115 -35.676,44.809 0.038,-0.149 0.067,-0.316 0.079,-0.506 0,-0.012 0.003,-0.025 0.003,-0.04 v -0.006 l 0.186,0.016 c 0.015,-0.053 0.027,-0.104 0.041,-0.153 0.031,-0.125 0.06,-0.251 0.08,-0.375 0.022,-0.388 0.015,-1.02 -0.022,-1.555 0.002,0 0.002,-0.005 0.003,-0.008 0.007,-0.04 -0.015,-0.208 -0.032,-0.208 -0.043,-0.397 -0.193,-1.076 -0.286,-1.542 0.013,0 -0.007,-0.212 -0.038,-0.321 l -0.595,-1.515 c 0,0 5.176,-3.299 6.682,-4.506 1.541,-1.23 3.927,-3.725 4.639,-4.85 0.068,-0.105 0.125,-0.206 0.172,-0.302 0.336,-0.662 0.225,-1.067 0.063,-1.644 -0.039,-0.15 -0.083,-0.3 -0.121,-0.472 -0.066,-0.29 -0.039,-0.494 0.053,-0.648 0.205,-0.339 0.724,-0.438 1.268,-0.683 0.143,-0.068 0.292,-0.133 0.443,-0.206 0.997,-0.486 4.697,-2.65 5.965,-3.707 1.167,-0.977 3.599,-3.151 5.012,-4.744 0.395,-0.445 0.711,-0.844 0.896,-1.159 0.569,-0.967 0.481,-2.371 -0.264,-3.029 -0.314,-0.274 -1.9,-1.682 -2.48,-2.396 -0.168,-0.211 -0.235,-0.448 -0.23,-0.69 C 66.349,10.608 66.985,9.823 67.27,9.47 67.699,8.942 68.051,8.143 68.081,8.006 68.077,7.933 67.999,7.618 67.929,7.34 67.832,6.95 67.711,6.469 67.643,6.091 67.53,5.486 67.216,5.383 66.882,5.329 66.547,5.271 65.158,4.659 65.001,4.589 L 64.843,4.52 64.923,4.364 c 0.001,0 0.003,-0.01 0.01,-0.029 C 64.974,4.19 65.151,3.497 65.037,2.686 64.919,1.839 62.15,0.763 62.15,0.763 62.032,0.445 60.655,-0.08 60.12,-0.201 c -0.557,-0.126 -1.022,0.005 -1.022,0.005 -0.154,-0.131 -0.037,-0.477 -0.065,-2.103 -0.012,-0.735 -0.051,-1.18 0,-1.505 0.004,-0.026 0.01,-0.048 0.015,-0.071 0.005,-0.021 0.009,-0.043 0.014,-0.062 0.09,-0.337 0.322,-0.554 0.869,-0.903 l 2.347,-0.586 c 0.081,0.003 0.467,-0.264 0.843,-0.409 0.009,-0.004 0.017,-0.005 0.027,-0.011 0.009,-0.003 0.018,-0.006 0.028,-0.009 0.022,-0.006 0.044,-0.014 0.066,-0.023 0.004,0 0.004,0 0.007,-10e-4 0.092,-0.028 0.183,-0.045 0.264,-0.045 0.041,0 0.092,-0.003 0.145,-0.005 0.429,-0.03 1.188,-0.171 1.628,-0.399 0.098,-0.051 0.184,-0.106 0.242,-0.165 0.078,-0.138 0.138,-0.307 0.197,-0.477 0.017,-0.053 0.034,-0.106 0.055,-0.159 0.002,-0.008 0.005,-0.017 0.007,-0.022 0.027,-0.078 0.054,-0.151 0.083,-0.22 0.01,-0.025 0.021,-0.049 0.032,-0.071 0.002,-0.004 0.004,-0.007 0.004,-0.011 0.065,-0.132 0.14,-0.241 0.239,-0.306 0.063,-0.041 0.153,-0.053 0.31,-0.07 0.022,-0.002 0.041,-0.004 0.065,-0.009 0.02,-0.001 0.042,-0.005 0.064,-0.006 0.53,-0.077 1.549,-0.476 2.748,-1.287 0.291,-0.198 0.481,-0.414 0.594,-0.649 0.009,-0.017 0.015,-0.036 0.022,-0.055 0.017,-0.041 0.034,-0.082 0.048,-0.123 0.208,-0.657 -0.128,-1.409 -0.532,-2.103 -0.065,-0.11 -0.11,-0.189 -0.136,-0.25 -0.01,-0.022 -0.026,-0.053 -0.037,-0.082 -0.207,-0.445 -0.634,-1.372 0.73,-3.214 1.475,-1.985 1.393,-2.191 0.853,-3.538 l -0.091,-0.221 c -0.669,-1.693 -2.205,-2.296 -2.563,-2.526 -0.811,-0.52 -8.832,-2.428 -11.774,-3.57 -3.27,-1.271 -5.649,-2.553 -6.702,-3.604 -0.002,-0.004 -0.002,-0.004 -0.004,-0.006 -0.995,-0.998 -1.403,-3.241 -1.759,-5.054 l 0.002,-0.019 c -0.332,0.228 -0.675,0.46 -1.036,0.7 0,0 -0.223,-0.313 -0.748,-0.428 -0.065,-0.015 -0.135,-0.027 -0.21,-0.032 l -0.36,-0.065 -0.296,-0.054 -1.985,-0.351 c -1.7,-0.164 -3.666,-0.053 -4.799,0.095 3.074,1.123 4.65,2.556 5.756,2.452 l -3.091,1.945 c -2.541,1.591 -3.43,2.291 -6.05,3.8 0,0 -7.063,-1.428 -11.871,0.166 6.326,-0.062 10.114,1.61 10.114,1.61 -0.365,0.425 -0.52,0.449 -0.973,0.837 -2.956,2.418 -7.819,5.119 -7.819,5.119 -2.578,1.483 -6.307,2.667 -9.528,2.407 -0.62,-0.053 -1.237,-0.128 -1.851,-0.227 l -0.542,2.116 c -0.236,-10e-4 -0.465,-0.013 -0.692,-0.032 -0.998,-0.081 -1.934,-0.31 -2.849,-0.709 -0.075,0.068 -0.155,0.14 -0.24,0.213 -0.43,0.37 -0.989,0.842 -1.658,1.382 -0.004,0.004 -0.007,0.005 -0.01,0.007 -0.217,-0.3 -0.449,-0.586 -0.696,-0.859 1.006,-0.913 1.541,-1.46 1.541,-1.46 0.206,-0.208 0.397,-0.421 0.606,-0.626 1.251,0.808 2.463,1.232 4.014,1.19 -1.252,-0.603 -1.861,-1.202 -2.526,-2.348 l 0.123,-0.271 c 4.122,0.7 7.907,1.401 11.861,-1.112 3.253,-1.801 5.09,-3.049 7.834,-5.342 -7.71,-1.664 -12.031,-0.759 -12.031,-0.759 0,0 4.765,-2.207 8.205,-2.83 4.077,-0.748 8.368,0.315 8.368,0.315 2.028,-1.321 4.698,-2.882 6.689,-4.254 l -0.999,-0.582 c -2.841,-1.352 -7.236,-2.701 -10.032,-1.958 0.236,-0.222 3.174,-0.945 3.505,-0.984 0.247,-0.029 0.5,-0.058 0.753,-0.089 0.137,-0.017 0.273,-0.03 0.41,-0.045 0.117,-0.014 0.234,-0.028 0.356,-0.04 0.189,-0.022 0.379,-0.041 0.572,-0.061 0.067,-0.008 0.131,-0.014 0.2,-0.021 0.216,-0.022 0.434,-0.044 0.654,-0.064 0.043,-0.005 0.085,-0.009 0.128,-0.012 0.235,-0.021 0.469,-0.041 0.703,-0.062 0.03,-10e-4 0.059,-0.005 0.089,-0.007 0.244,-0.02 0.49,-0.037 0.737,-0.054 0.02,-0.002 0.039,-0.003 0.059,-0.003 0.252,-0.019 0.506,-0.032 0.76,-0.048 0.014,-0.002 0.026,-0.002 0.039,-0.003 0.259,-0.012 0.519,-0.026 0.777,-0.035 0.009,0 0.016,0 0.024,-0.003 0.263,-0.01 0.525,-0.015 0.786,-0.022 h 0.014 c 0.264,-0.005 0.528,-0.008 0.792,-0.01 h 0.002 c 0.266,0 0.53,0.002 0.792,0.008 1.5,0.031 2.954,0.157 4.283,0.431 1.15,-0.836 1.844,-1.336 3.02,-2.104 0.194,-0.128 0.381,-0.254 0.565,-0.377 0.055,-0.037 0.108,-0.073 0.164,-0.111 0.131,-0.088 0.26,-0.178 0.388,-0.266 0.053,-0.037 0.104,-0.071 0.156,-0.105 0.167,-0.119 0.33,-0.232 0.49,-0.346 0,0 0.004,-0.002 0.005,-0.002 0.164,-0.118 0.321,-0.233 0.478,-0.344 0.044,-0.031 0.088,-0.063 0.131,-0.095 0.116,-0.084 0.23,-0.167 0.342,-0.249 0.038,-0.029 0.077,-0.057 0.115,-0.085 0.301,-0.222 0.586,-0.437 0.859,-0.641 0.011,-0.007 0.02,-0.016 0.03,-0.021 0.164,-0.124 0.321,-0.242 0.476,-0.358 0.04,-0.03 0.08,-0.061 0.121,-0.09 0.095,-0.073 0.189,-0.145 0.283,-0.213 0.085,-0.063 0.17,-0.128 0.255,-0.189 0.045,-0.033 0.089,-0.065 0.133,-0.097 0.07,-0.053 0.142,-0.104 0.211,-0.156 0.043,-0.03 0.084,-0.062 0.128,-0.093 0.087,-0.063 0.176,-0.126 0.263,-0.188 0.02,-0.013 0.041,-0.029 0.06,-0.04 0,-0.002 10e-4,-0.002 0.003,-0.002 0.116,-0.082 0.23,-0.16 0.344,-0.239 0.009,-0.005 0.017,-0.01 0.026,-0.015 0.105,-0.07 0.209,-0.138 0.313,-0.205 0.034,-0.022 0.068,-0.042 0.103,-0.063 0.078,-0.048 0.156,-0.097 0.231,-0.141 0.112,-0.068 0.223,-0.131 0.333,-0.189 l 2.433,-1.238 c -2.875,-0.872 -11.883,0.725 -25.138,6.821 L 33.7,-36.722 c 17.08,-10.371 31.545,-14.439 31.545,-14.439 l -0.104,-0.166 c 0,0 -12.303,2.448 -27.349,10.435 -9.859,5.211 -18.99,11.514 -26.672,19.256 0,0 -0.564,-0.513 -0.699,-1.159 0,0 -0.392,1.206 -0.485,2.272 0,0 -0.815,-0.15 -1.526,-1.03 0,0 -0.213,1.498 -0.034,2.856 0,0 -1.498,1.575 -3.267,3.303 -0.395,0.387 -0.804,0.781 -1.213,1.165 -0.283,0.267 -0.563,0.529 -0.838,0.783 -0.539,-0.37 -1.122,-0.672 -1.742,-0.905 -0.909,-0.346 -1.894,-0.545 -2.925,-0.544 -2.074,-0.001 -3.964,0.769 -5.414,2.033 1.513,-1.736 3.734,-2.841 6.219,-2.839 0.924,0 1.808,0.157 2.634,0.438 0.392,-0.456 0.725,-0.928 1.009,-1.401 1.462,-2.43 1.612,-4.889 1.628,-5.405 v -0.004 c 0.001,-0.018 0.001,-0.034 0.001,-0.046 v -0.015 -0.033 c 0.719,0.609 1.195,1.178 2.284,1.63 -0.244,-2.677 0.048,-4.252 0.291,-6.321 0.438,0.758 1.954,3.258 1.954,3.258 0.207,-1.539 0.284,-5.051 1.237,-6.479 0.374,1.687 1.213,3.662 1.213,3.662 0.123,-0.545 1.437,-2.355 1.437,-2.355 2.926,-3.475 6.264,-6.314 9.976,-8.901 3.632,-2.462 7.205,-4.617 10.876,-6.529 1.314,-0.686 2.643,-1.339 3.99,-1.963 1.806,-0.838 3.65,-1.624 5.547,-2.365 1.193,-0.464 2.408,-0.91 3.648,-1.341 1.653,-0.573 3.351,-1.118 5.106,-1.635 11.882,-3.486 22.881,-1.556 22.881,-1.556 0,0 -4.113,2.904 -6.454,5.176 -1.241,-0.093 -3.635,0.011 -4.838,0.377"
         style="fill:#782f40;fill-opacity:1;fill-rule:nonzero;stroke:none"
         id="path7579" />
    </g>
    <g
       id="g7581"
       transform="matrix(0.35277777,0,0,-0.35277777,127.63642,214.00359)">
      <path
         d="M 0,0 C 0.63,-0.095 0.709,-0.261 2.962,1.326 3.768,2.074 5.142,1.551 5.816,2.515 5.898,2.664 5.892,2.935 5.723,2.991 4.227,3.347 3.102,2.401 1.961,1.374 0.895,0.801 -0.288,1.467 -1.244,1.99 c -0.758,0.525 -0.85,0.784 -0.924,1.645 -0.893,1.34 -1.821,2.41 -1.821,2.41 L -5.133,7.43 c -1.295,1.459 -2.386,2.003 -2.386,2.003 l -1.046,0.86 c -0.094,0.121 -0.235,-0.037 -0.281,-0.056 1.477,-1.713 3.471,-3.311 4.517,-5.238 0,0 1.493,-2.046 1.817,-4.193 0.644,-2.892 0.486,-6.062 0.271,-9.007 -0.116,-2.735 -0.037,-4.219 0.298,-6.549 0.455,-2.894 0.939,-4.129 1.667,-5.647 -0.148,0.431 -0.187,1.431 -0.187,1.431 -0.684,3.323 -1.393,7.517 -0.861,10.481 0.412,2.777 0.768,5.941 0,8.672 C -1.098,0.704 -0.227,0.051 0,0 m -17.24,8.243 c -2.348,-2.314 -4.251,-4.751 -5.228,-7.817 0.62,0.832 1.097,1.779 1.847,2.575 1.185,2.013 2.593,4.064 4.721,5.29 2.178,1.638 4.778,2.282 7.531,2.571 0.102,-0.054 0.317,-0.083 0.373,0 -0.215,0.149 -0.491,0.15 -0.706,0.294 -0.056,0.039 -0.087,0.073 -0.107,0.109 -0.041,0.069 -0.037,0.143 -0.118,0.24 -0.175,0.211 -0.512,0.124 -0.708,0.312 -0.159,0.155 -0.254,0.487 -0.195,0.702 0.102,0.361 0.556,0.14 0.84,0.221 0.093,0.047 0.854,0.314 0.854,0.314 -0.678,0.823 -2.152,0.457 -2.573,0.234 -1.282,-0.403 -2.628,-0.655 -3.761,-1.425 l -0.046,0.049 c 0.497,0.702 -1.272,-0.276 -2.625,-1.551 0.009,0.143 -0.179,0.379 -0.67,1.151 0.094,1 0.742,1.9 1.34,2.76 1.374,1.599 4.941,3.191 4.903,3.003 0.589,-0.569 1.336,-0.963 1.909,-1.666 0.243,-0.302 0.354,-0.632 0.477,-0.996 0.239,0.975 1.38,1.26 2.094,1.718 -0.15,-0.095 -0.79,0.177 -0.99,0.203 -0.017,0.392 0.178,0.544 0.462,0.721 0.247,0.153 0.345,0.75 0.338,1.007 -0.007,0.322 0.007,0.735 -0.246,0.93 -1.735,1.349 -5.019,2.388 -5.395,1.838 -0.087,-0.128 0.799,-0.735 1.031,-1.035 -0.069,0.09 -1.631,0.518 -1.764,0.527 -0.435,0.025 -0.874,-0.021 -1.304,-0.09 -0.9,-0.151 -6.633,-3.629 -7.083,-3.849 0.019,-1.394 3.692,0.249 4.37,0.568 -1.666,-0.823 -6.139,-4.513 -6.943,-6.215 1.515,0.086 4.14,2.176 5.079,2.456 1.324,0.393 0.489,-1.928 0.489,-1.928 0,0 -1.493,-1.007 0.693,-0.787 0.539,0.056 0.249,-0.12 -0.003,-0.464 -0.426,-0.579 -0.658,-1.285 -0.518,-1.368 0.428,0.182 0.734,0.345 0.946,0.489 1.095,0.436 3.09,1.068 4.12,1.333 l 0.048,-0.046 C -14.797,9.964 -15.948,9.62 -16.996,9.003 V 8.91 C -16.577,8.715 -16.95,8.431 -17.24,8.243 M 4.262,5.668 C 4.513,5.556 4.756,5.351 5.033,5.307 5.16,5.283 5.293,5.351 5.333,5.486 5.46,5.927 4.641,6.326 4.368,6.573 4.172,6.759 3.919,6.897 3.773,7.127 3.661,7.302 3.666,7.764 3.42,7.81 3.119,7.865 2.829,7.686 2.601,7.512 2.388,7.349 2.154,7.212 1.944,7.047 1.808,6.938 1.571,6.805 1.558,6.61 1.566,6.721 2.82,6.293 2.914,6.254 3.368,6.068 3.816,5.868 4.262,5.668 m -34.937,-20.629 c -0.523,0.16 -0.965,0.504 -1.469,0.711 -0.694,0.468 -1.507,0.656 -2.34,0.76 l 0.291,-0.19 c 1.028,-0.177 1.768,-1.085 2.666,-1.617 0.673,-0.356 1.835,-0.572 2.479,0 0.421,0.223 0.552,0.663 0.619,1.094 0,0.832 -0.29,1.667 -1.05,2.049 -0.654,-0.534 -1.046,-1.346 -1.14,-2.19 0.271,0.319 0.411,0.721 0.805,0.954 0.335,0.067 0.56,-0.083 0.766,-0.337 0.067,-0.353 -0.083,-0.738 -0.383,-1.001 -0.357,-0.223 -0.806,-0.364 -1.244,-0.233 m 12.099,55.507 c 0.014,-0.031 0.03,-0.067 0.045,-0.108 0.063,-0.167 0.122,-0.395 0.172,-0.637 0.036,-0.16 0.068,-0.327 0.095,-0.486 -0.288,0.341 -0.727,0.807 -1.358,1.355 -0.392,0.345 -0.826,0.663 -1.242,0.943 h 0.001 c 0,0 -0.001,0 -0.001,10e-4 0.615,-0.029 1.227,-0.064 1.835,-0.114 z M 5.931,-8.436 C 5.625,-8.795 5.044,-8.884 4.578,-8.795 4.468,-9.146 3.499,-10.058 2.913,-9.593 1.415,-11.15 0.788,-9.963 0.586,-9.755 c 0.425,0.438 0.762,1.21 1.507,1.118 0.446,0.532 0.757,1.258 1.92,1.292 0.27,0.588 0.878,0.617 1.287,0.896 C 5.636,-6.328 5.706,-6.638 5.869,-6.81 5.909,-6.9 5.951,-7.009 5.99,-7.124 6.128,-7.527 6.215,-8.039 5.931,-8.436 M 1.522,-16.98 c 0.647,0.167 1.065,0.011 1.235,-0.493 0.002,-0.004 0.004,-0.007 0.004,-0.012 0.003,-0.012 0.007,-0.024 0.009,-0.036 0.066,0.038 0.134,0.089 0.201,0.094 0.572,0.031 1.179,-0.174 1.67,-0.515 0.032,-0.023 0.059,-0.049 0.083,-0.08 0.024,-0.029 0.045,-0.06 0.067,-0.09 0.108,0.058 0.253,0.145 0.334,0.124 0.62,-0.151 1.325,-0.191 1.825,-0.395 0.097,-0.041 0.134,-0.218 0.211,-0.288 -0.187,-0.544 -0.794,-0.329 -1.239,-0.326 -0.358,0.076 -0.832,0.06 -1.072,0.379 -0.293,-0.188 -0.697,0.046 -1.031,0.088 -0.334,0.127 -0.668,0.201 -0.889,0.379 0,-0.004 10e-4,-0.004 10e-4,-0.004 -0.497,0.218 -1.186,0.461 -1.573,0.878 -0.071,0.075 -0.132,0.157 -0.18,0.244 0.17,0.01 0.219,0.02 0.344,0.053 m -24.685,60.708 c -3.572,0 -7.064,-0.358 -10.441,-1.033 -2.376,-0.148 -5.246,-0.563 -7.131,-1.437 -2.032,0 -3.968,-0.291 -5.764,-0.862 -1.834,-0.419 -3.358,-1.534 -4.949,-2.526 -1.813,-1.619 -4.584,-3.744 -4.434,-3.873 -0.179,-0.094 -0.803,-1.021 -1.679,-1.459 -2.772,-1.386 -6.419,-5.545 -7.951,-7.807 0,0 -2.178,-3.19 -2.946,-4.442 -0.85,-1.539 -4.744,-8.825 -6.296,-13.148 -0.3,-1.21 -0.431,-3.344 -0.619,-4.152 -0.115,-0.719 -1.302,-5.307 -1,-9.191 0.046,-0.613 0.142,-0.978 0.094,-1.436 -0.046,-2.005 -0.282,-3.258 0.102,-5.281 v 0.004 c 0.005,0.016 0.009,0.033 0.014,0.048 v -10e-4 c 0.133,-2.049 0.38,-4.065 0.738,-6.043 0.003,-0.034 0.003,-0.074 0.005,-0.108 0.75,-4.061 1.637,-8.059 3.096,-11.818 0,0 1.04,-3.968 1.527,-5.005 0.431,-0.472 0.787,-0.531 0.89,-1.01 0.608,-2.769 1.261,-4.458 3.159,-6.617 0.193,-0.155 0.377,-0.191 0.545,-0.184 0.198,0.007 0.375,0.072 0.52,0.07 0.062,-0.003 0.118,-0.015 0.167,-0.049 1.353,-2.059 0.483,-0.941 2.531,-2.783 0.832,-0.702 1.667,-1.404 2.573,-1.958 0.089,-0.046 0.532,-0.164 0.946,-0.164 0.138,0 0.273,0.012 0.392,0.044 9.462,-8.698 22.078,-14.015 35.911,-14.015 4.276,0 8.434,0.51 12.42,1.469 -1.242,0.432 -2.456,0.878 -3.649,1.341 -2.849,-0.49 -5.78,-0.751 -8.771,-0.751 -11.957,0 -22.956,4.114 -31.657,10.999 0.034,0.157 0.053,0.33 0.053,0.552 0,0.431 0.032,0.881 0,1.312 -0.065,0.83 -0.399,1.348 -0.667,2.083 -0.069,0.189 -0.097,0.395 -0.107,0.608 8.541,-7.795 19.905,-12.548 32.378,-12.548 1.083,0 2.159,0.039 3.224,0.111 -1.348,0.624 -2.676,1.276 -3.991,1.963 -0.978,0.014 -1.95,0.061 -2.912,0.138 -2.864,1.593 -5.698,3.359 -8.564,5.339 -6.597,4.545 -10.35,9.269 -10.389,9.312 -0.704,-1.742 -1.186,-3.664 -1.186,-3.664 h -10e-4 l -1.415,2.294 c -0.535,0.809 -0.818,1.985 -1.016,3.209 l -1.707,-2.732 c 0,0.007 -0.653,3.298 -0.653,3.298 0,0 -0.354,2.791 -0.387,3.929 -0.03,-0.046 -2.059,-1.756 -2.059,-1.756 h -10e-4 l -0.15,2.69 c 0,0.033 -0.019,2.645 -1.604,5.104 -0.811,-0.214 -1.66,-0.329 -2.537,-0.329 -1.376,0 -2.684,0.28 -3.877,0.785 -3.576,1.511 -6.084,5.052 -6.086,9.18 0,5.497 4.461,9.961 9.963,9.961 1.891,0 3.66,-0.53 5.165,-1.444 2.875,-1.746 4.797,-4.911 4.797,-8.521 0,-1.716 -0.434,-3.331 -1.201,-4.741 0.613,-0.543 1.107,-1.002 1.476,-1.351 0.93,0.361 1.873,0.552 2.873,0.598 0.227,0.008 0.455,0.008 0.69,0.004 h 0.002 l 0.453,-2.093 c 0.164,0.003 0.327,0.007 0.489,0.005 0.458,0.049 0.919,0.09 1.381,0.104 0.797,0.027 1.584,0.002 2.366,-0.067 0.041,0.319 0.207,0.611 0.447,0.987 0.49,0.765 1.162,1.322 1.595,2.129 0.391,0.724 1.171,2.283 1.565,3.007 0.155,0.288 0.339,0.577 0.422,0.897 0.104,-0.029 1.154,-0.06 1.513,-0.336 0.052,-0.041 0.089,-0.087 0.108,-0.136 0.141,-0.389 0.36,-0.729 0.625,-1.026 1.149,-1.28 3.181,-1.716 3.729,-1.559 0.445,0.129 0.917,0.01 1.304,-0.258 l 0.002,-0.002 c 0.039,-0.027 0.075,-0.056 0.11,-0.083 0.184,-0.15 0.345,-0.334 0.467,-0.544 0.142,-0.243 0.554,-0.816 0.905,-1.429 1.466,-2.565 8.68,-10.721 11.289,-13.201 0.088,-0.083 0.17,-0.16 0.249,-0.232 0.003,-0.005 0.006,-0.007 0.012,-0.01 0.24,-0.22 0.426,-0.37 0.541,-0.44 1.108,-0.647 2.367,-0.966 3.567,-0.346 0.721,0.373 1.033,1.089 1.471,1.725 0.167,0.245 0.326,0.491 0.506,0.724 0.312,0.404 0.674,0.829 1.116,1.091 0.306,0.182 8.259,1.604 9.181,1.737 1.099,0.156 1.914,0.345 2.779,0.542 0.95,0.219 3.562,0.635 4.044,1.003 -0.018,0.064 -0.095,0.044 -0.143,0.044 l -0.339,-0.051 c -0.295,-0.046 -0.187,-0.022 -0.509,-0.042 -3.959,-0.259 -7.589,0.553 -11.248,1.143 l -5.718,0.627 c -1.002,0.149 -2.16,0.082 -3.096,0.232 l -0.046,-0.044 c -2.377,0.13 -4.653,0.523 -6.624,1.617 -0.984,0.59 -1.957,1.336 -2.786,2.182 -0.832,0.845 -1.522,1.789 -1.938,2.775 -0.488,0.834 -1.457,3.135 -1.653,4.089 0,0 0.777,0.97 0.845,1.969 -1.374,-0.877 -2.648,-1.606 -4.277,-1.316 -0.304,0.054 -0.618,0.143 -0.946,0.271 -0.508,0.402 -1.055,0.893 -1.647,1.3 -0.56,0.385 -1.16,0.699 -1.802,0.79 -2.414,0.422 -2.727,0.031 -3.862,1.054 2.254,6.188 3.43,2.74 6.108,8.09 v -0.002 c 0.207,-0.257 0.216,-0.619 0.417,-0.874 0.07,-0.089 0.162,-0.165 0.292,-0.218 0.72,-0.157 1.383,-0.442 1.952,-0.955 0.074,-0.066 0.145,-0.141 0.217,-0.216 0.006,-0.005 0.013,-0.012 0.02,-0.021 0.254,1.725 0.421,3.492 0.955,5.101 -0.067,0.168 0.098,0.293 0.029,0.431 -0.026,0.147 -0.22,0.448 -0.386,0.685 -0.127,0.181 -0.237,0.326 -0.237,0.326 0,0 -0.03,0.08 -0.071,0.172 0,10e-4 0.002,10e-4 0.002,0.003 l -0.012,0.019 c -0.033,0.071 -0.072,0.143 -0.107,0.186 l -0.002,10e-4 c -0.012,0.012 -0.022,0.023 -0.034,0.03 -0.09,0.051 -0.68,0.887 -0.714,0.935 -0.352,0.86 -1.093,1.571 -1.612,2.313 -0.002,-0.007 -0.004,-0.014 -0.008,-0.021 -0.993,2.391 -1.917,3.649 -2.474,4.255 -0.005,0.007 -0.01,0.013 -0.017,0.021 -0.033,0.034 -0.065,0.068 -0.096,0.099 -0.032,0.034 -0.063,0.064 -0.091,0.093 -0.004,0.004 -0.005,0.007 -0.009,0.009 -0.005,0.005 -0.01,0.012 -0.017,0.019 -0.046,0.054 -0.097,0.105 -0.152,0.146 0,0 -1.342,1.108 -1.586,1.219 0.953,-3.376 0.001,-7.586 -0.288,-8.887 v 10e-4 l -0.002,-10e-4 c -0.29,0.395 -0.292,5.71 -0.46,6.203 -0.229,-1.877 -0.309,-7.105 -2.887,-9.319 0.412,1.601 2.113,6.993 2.134,7.066 -0.298,-0.51 -1.529,-3.228 -2.248,-3.373 1.406,4.639 2.137,8.233 2.101,8.557 -0.412,-0.661 -0.901,-1.779 -1.063,-2.555 V 4.303 4.301 c -0.234,1.186 0.31,2.366 0.664,3.479 l -0.155,0.599 c 0.038,0.057 0.07,0.094 0.092,0.108 -0.245,0.249 -0.485,0.518 -0.716,0.799 -0.054,0.065 -0.107,0.133 -0.158,0.201 -0.059,0.075 -0.121,0.148 -0.177,0.225 h -0.002 c -0.107,0.145 -0.213,0.291 -0.314,0.436 -0.008,0.014 -0.015,0.026 -0.023,0.04 -0.019,0.032 -0.038,0.062 -0.06,0.09 -0.094,0.143 -0.188,0.283 -0.271,0.424 -0.184,0.307 -0.348,0.605 -0.496,0.903 0.004,0.007 0.009,0.018 0.012,0.024 l -0.048,0.05 c 0,0.002 0,0.003 -0.001,0.003 -0.014,0.022 -0.024,0.048 -0.038,0.07 -0.514,1.062 -0.813,2.12 -0.867,3.407 0,0.156 0.023,0.33 0,0.421 0.085,0.073 0.036,0.196 0.046,0.289 -0.017,0.024 -0.034,0.036 -0.051,0.043 h -0.002 c 0.013,0.455 0.053,0.941 0.121,1.462 0.013,0.131 0.044,0.249 0.073,0.361 0.091,0.306 0.186,0.612 0.225,0.912 0.019,0.048 0.039,0.097 0.06,0.143 0.13,0.298 0.244,0.448 0.421,0.723 0.1,0.155 0.235,0.283 0.334,0.441 0.301,0.478 0.71,0.777 1.06,1.205 0.29,0.24 0.583,0.474 0.878,0.706 0.126,0.088 0.238,0.165 0.313,0.218 0.191,0.134 0.319,0.255 0.431,0.366 0.322,0.251 0.641,0.501 0.956,0.757 0.004,0.014 -0.003,0.024 -0.007,0.034 0.394,0.239 1.301,0.784 2.524,1.498 l 0.102,0.041 c -0.005,0.003 -0.01,0.005 -0.017,0.008 v 0.002 c 0.699,0.411 0.468,0.397 1.09,0.915 0.052,0.045 0.097,0.082 0.143,0.119 0.007,0 0.013,0 0.02,0.004 l -0.007,0.007 h -0.002 c 0.445,0.373 0.551,0.457 1.137,0.826 0.692,0.444 0.813,0.481 1.58,0.709 0.225,0.067 1.028,0.505 1.353,0.561 -0.026,-0.012 0.215,0.09 0.472,0.197 0.113,0.033 0.225,0.082 0.339,0.145 0.14,0.06 0.237,0.101 0.232,0.096 0.893,0.279 1.205,0.274 2.222,0.405 l 0.104,0.009 0.007,0.007 c 0.039,0.005 0.078,0.01 0.121,0.015 1.493,0.206 2.461,0.452 3.857,0.462 -0.012,0.015 -0.019,0.029 -0.024,0.039 -0.036,0.08 0.095,0.048 0.56,0.067 0.026,0 0.021,0.045 -0.006,0.121 0.025,-0.033 0.047,-0.065 0.075,-0.096 0.01,0.016 0.03,0.041 0.073,0.073 -1.385,2.574 -2.222,4.936 -4.756,6.647 0.001,0 0.001,0 0.005,-0.002 -0.004,0.002 -0.004,0.002 -0.005,0.004 2.9,-1.386 5.041,-3.862 6.52,-6.753 0.075,0.01 0.112,-0.083 0.196,-0.054 0.097,0.114 0.047,0.201 -0.012,0.29 -0.015,0.02 -0.029,0.042 -0.044,0.066 -0.031,0.05 -0.055,0.106 -0.047,0.169 -0.224,0.591 -0.425,1.147 -0.63,1.682 -0.484,1.268 -0.983,2.421 -1.839,3.691 -0.606,0.607 -1.038,1.393 -1.523,1.953 1.177,-0.831 2.309,-1.972 3.29,-3.095 h 0.002 c 0.007,-0.028 0.019,-0.054 0.032,-0.082 0.091,-0.185 0.285,-0.339 0.341,-0.534 0.073,-0.086 0.127,-0.186 0.174,-0.285 0.012,-0.022 0.021,-0.043 0.031,-0.063 0.07,-0.145 0.141,-0.283 0.274,-0.365 -0.009,1.04 -0.179,1.675 -0.429,2.1 -0.416,0.71 -1.055,0.845 -1.542,1.31 -0.035,0.07 -0.069,0.155 -0.104,0.254 -0.249,0.699 -0.523,2.084 -1.018,3.349 -0.335,0.869 -0.775,1.68 -1.38,2.178 1.136,-0.714 2.68,-1.609 3.319,-2.821 0.23,-0.434 0.573,-1.029 0.907,-1.796 0.595,-1.367 1.162,-3.279 1.014,-5.816 0.317,0.45 0.346,1.01 0.523,1.523 0.346,1.658 0.178,3.586 -0.046,5.239 1.019,-2.142 1.44,-4.106 1.178,-6.726 l 0.046,-0.045 c 0.73,0.617 0.852,1.084 1.302,1.824 l -0.002,-0.002 h 0.002 c -0.373,-1.561 -0.869,-3.078 -1.955,-4.341 l 0.188,-0.187 c 4.217,-1.815 8.035,-4.659 11.479,-8.243 0.155,-0.215 0.297,-0.438 0.411,-0.672 0.25,-0.516 0.369,-1.084 0.216,-1.716 0,-0.6 -0.66,-1.641 -0.383,-2.215 0.051,-0.106 0.134,-0.194 0.261,-0.264 0.674,-0.346 2.983,-0.736 4.146,-1.391 0.097,-0.051 0.186,-0.1 0.279,-0.15 0.096,-0.049 0.195,-0.102 0.29,-0.153 0.001,-0.002 0.007,-0.005 0.009,-0.007 0.107,-0.056 0.207,-0.116 0.31,-0.172 0.057,-0.033 0.117,-0.067 0.174,-0.099 0.001,0 0.003,0 0.003,-0.002 0.005,-0.001 0.01,-0.005 0.015,-0.009 0.094,-0.052 0.186,-0.105 0.277,-0.159 0.074,-0.045 0.149,-0.088 0.224,-0.134 0.142,-0.086 0.281,-0.171 0.418,-0.257 0.068,-0.041 0.134,-0.083 0.199,-0.126 0.091,-0.058 0.179,-0.114 0.266,-0.174 0.017,-0.01 0.032,-0.02 0.048,-0.03 0.111,-0.07 0.216,-0.142 0.322,-0.215 L 2.64,12.582 H 2.642 L 2.645,12.58 C 2.81,12.466 2.971,12.352 3.13,12.238 3.141,12.229 3.151,12.224 3.161,12.215 3.323,12.1 3.481,11.982 3.639,11.863 3.642,11.861 3.647,11.857 3.65,11.856 3.672,11.837 3.696,11.818 3.72,11.8 3.901,11.664 4.08,11.523 4.257,11.38 4.291,11.355 4.324,11.324 4.359,11.297 4.542,11.149 4.722,11 4.903,10.849 6.25,9.71 7.566,8.441 9.294,6.916 V 6.914 C 9.31,6.897 9.325,6.878 9.344,6.857 9.344,6.856 9.346,6.856 9.348,6.854 9.351,6.851 9.354,6.844 9.358,6.84 9.584,6.566 9.969,6.011 9.978,5.417 9.981,5.268 9.959,5.114 9.906,4.964 9.363,3.41 8.084,3.587 7.232,2.174 6.822,1.646 6.25,0.806 6.142,0.58 6.391,-0.755 6.851,-0.966 7.158,-1.319 7.517,-1.733 8.098,-2.054 8.255,-2.502 8.308,-2.653 8.313,-2.815 8.247,-3.003 8.032,-3.434 7.9,-3.893 7.815,-4.378 3.613,-5.121 -0.042,-8.289 -0.042,-8.289 l -0.094,-0.142 c -0.051,-2.75 -0.206,-6.252 0.465,-8.89 0.073,-0.288 0.153,-0.566 0.247,-0.828 0.126,-0.461 0.266,-0.913 0.416,-1.355 0.595,-1.739 1.373,-3.356 2.36,-4.91 0.565,-0.886 1.193,-1.755 1.892,-2.614 l 1.234,-1.468 c -0.788,1.754 -2.136,3.996 -3.216,6.169 -0.254,0.508 -0.492,1.018 -0.707,1.512 -0.331,0.771 -0.602,1.513 -0.771,2.204 2.013,-0.956 4.16,-1.405 6.49,-1.574 0.823,-0.231 1.471,-0.419 1.731,-1.308 -0.046,-0.336 -0.233,-0.615 -0.429,-0.898 -0.609,-0.963 -0.505,-2.403 0.102,-3.339 0.072,-0.101 0.141,-0.199 0.21,-0.3 0.012,-0.015 0.024,-0.032 0.035,-0.049 0.002,-0.004 0.004,-0.007 0.007,-0.012 0.548,-0.811 0.968,-1.668 1.367,-2.541 0.014,-0.048 0.019,-0.097 0.027,-0.145 0.103,-0.579 -0.112,-1.108 -0.365,-1.576 -1.168,-1.113 -2.45,-1.975 -3.957,-2.282 -5.455,-1.225 -11.039,-2.181 -15.577,-5.624 -0.646,-0.491 -1.263,-1.053 -1.885,-1.574 -0.605,-0.512 -1.198,-1.049 -1.664,-1.691 -0.093,-0.128 -0.199,-0.287 -0.301,-0.457 l 0.056,-0.034 0.036,-0.021 v -0.835 c 0.368,0.425 0.699,0.906 1.191,1.173 0.014,-0.013 0.027,-0.031 0.038,-0.044 -0.144,-0.225 -0.285,-0.45 -0.406,-0.685 -0.445,-0.861 -0.542,-1.775 -0.525,-2.71 l 0.36,0.065 c 0.075,0.005 0.143,0.018 0.208,0.032 0.526,0.114 0.75,0.428 0.75,0.428 0.359,-0.241 0.703,-0.472 1.035,-0.701 l -10e-4,0.019 c 0.356,1.815 0.764,4.056 1.759,5.055 0.001,0.003 0.001,0.005 0.003,0.005 1.051,1.053 3.432,2.333 6.703,3.604 2.941,1.142 10.963,3.051 11.774,3.57 0.356,0.234 1.891,0.834 2.563,2.528 l 0.089,0.221 c 0.54,1.348 0.623,1.553 -0.851,3.538 -1.367,1.841 -0.937,2.77 -0.731,3.216 0.012,0.027 0.025,0.056 0.036,0.078 0.026,0.062 0.071,0.144 0.138,0.251 0.404,0.693 0.74,1.445 0.532,2.103 -0.014,0.041 -0.031,0.082 -0.048,0.123 -0.009,0.018 -0.014,0.037 -0.024,0.054 -0.111,0.235 -0.302,0.452 -0.593,0.65 -1.198,0.811 -2.217,1.21 -2.749,1.286 -0.021,0.002 -0.043,0.005 -0.064,0.007 -0.024,0.005 -0.043,0.007 -0.064,0.008 -0.158,0.018 -0.247,0.029 -0.31,0.07 -0.101,0.065 -0.174,0.174 -0.238,0.307 0,0.003 -0.004,0.007 -0.004,0.01 -0.012,0.023 -0.022,0.047 -0.034,0.072 -0.029,0.068 -0.056,0.142 -0.082,0.22 -0.003,0.005 -0.005,0.013 -0.008,0.022 -0.019,0.053 -0.036,0.106 -0.055,0.158 -0.058,0.171 -0.118,0.34 -0.196,0.479 -0.059,0.058 -0.143,0.113 -0.242,0.164 -0.439,0.228 -1.2,0.368 -1.629,0.399 -0.053,0.001 -0.102,0.005 -0.143,0.005 -0.082,0 -0.172,0.017 -0.265,0.044 -0.003,0.002 -0.004,0.002 -0.006,0.002 -0.022,0.008 -0.046,0.017 -0.068,0.022 -0.009,0.005 -0.019,0.007 -0.028,0.01 -0.008,0.005 -0.017,0.007 -0.025,0.011 -0.377,0.144 -0.764,0.414 -0.844,0.408 l -2.346,0.587 c -0.547,0.349 -0.779,0.565 -0.87,0.903 -0.004,0.019 -0.008,0.041 -0.013,0.061 -0.005,0.024 -0.012,0.046 -0.015,0.072 -0.052,0.325 -0.013,0.77 0,1.505 0.027,1.625 -0.089,1.971 0.064,2.102 0,0 0.465,-0.131 1.021,-0.005 0.537,0.123 1.914,0.648 2.031,0.965 0,0 2.77,1.075 2.887,1.922 0.114,0.81 -0.063,1.505 -0.105,1.65 -0.005,0.019 -0.009,0.029 -0.009,0.029 l -0.08,0.155 0.158,0.07 c 0.157,0.07 1.546,0.682 1.882,0.74 0.334,0.056 0.648,0.156 0.758,0.761 0.07,0.379 0.191,0.859 0.288,1.249 0.069,0.28 0.147,0.594 0.152,0.667 -0.029,0.136 -0.383,0.935 -0.813,1.464 -0.283,0.352 -0.92,1.138 -0.932,1.866 -0.005,0.242 0.059,0.478 0.23,0.69 0.578,0.716 2.166,2.123 2.478,2.396 0.746,0.658 0.835,2.062 0.264,3.028 -0.184,0.316 -0.501,0.715 -0.896,1.159 -1.412,1.594 -3.843,3.768 -5.011,4.745 -1.268,1.056 -4.967,3.221 -5.966,3.706 -0.15,0.073 -0.298,0.14 -0.441,0.207 -0.544,0.245 -1.065,0.344 -1.268,0.683 -0.094,0.155 -0.122,0.358 -0.053,0.649 0.037,0.171 0.08,0.324 0.121,0.47 0.16,0.578 0.272,0.982 -0.063,1.645 -0.048,0.097 -0.106,0.196 -0.172,0.302 -0.713,1.124 -3.099,3.619 -4.639,4.85 -1.506,1.206 -6.682,4.508 -6.682,4.508 h -0.002 l 0.596,1.513 c 0.029,0.111 0.05,0.323 0.038,0.323 0.094,0.464 0.242,1.145 0.286,1.539 0.017,0 0.038,0.167 0.031,0.208 0,0.003 -10e-4,0.009 -0.003,0.009 0.039,0.536 0.045,1.167 0.022,1.554 -0.02,0.126 -0.048,0.251 -0.079,0.375 -0.013,0.051 -0.025,0.1 -0.041,0.153 l -0.185,-0.015 v 0.005 c -0.002,0.015 -0.004,0.029 -0.006,0.041 -0.011,0.189 -0.039,0.358 -0.076,0.509 C 7.56,30.725 22.83,12.423 22.83,-9.388 v -0.004 c 0,-12.084 -4.694,-23.09 -12.344,-31.307 -3.72,-3.993 -8.139,-7.323 -13.063,-9.8 -0.002,0 -0.002,-10e-4 -0.002,-10e-4 0.633,-0.426 1.306,-0.854 2.046,-1.289 15.128,8.092 25.421,24.041 25.421,42.397 0,24.283 -18.01,44.355 -41.4,47.591 l -0.002,0.004 c -0.074,0.136 -0.154,0.274 -0.236,0.412 -0.512,0.861 -1.124,1.743 -1.514,2.149 l -0.702,0.73 C 7.27,39.36 27.894,17.393 27.894,-9.392 c 0,-18.794 -10.157,-35.215 -25.281,-44.078 0.662,-0.324 1.456,-0.694 2.229,-1.037 0,0 0.056,0.036 0.148,0.094 0.298,0.187 0.596,0.377 0.891,0.569 0.124,0.082 0.247,0.16 0.371,0.242 0.475,0.315 0.943,0.638 1.407,0.967 0.852,0.605 1.685,1.235 2.5,1.885 0.382,0.305 0.758,0.616 1.13,0.928 0.371,0.316 0.739,0.636 1.102,0.96 0.511,0.455 1.012,0.918 1.503,1.392 0.493,0.472 0.975,0.958 1.447,1.447 0.571,0.595 1.127,1.201 1.668,1.82 0.762,0.871 1.495,1.764 2.199,2.681 6.79,8.872 10.747,19.921 10.747,32.13 0,29.29 -23.829,53.12 -53.118,53.12"
         style="fill:#231f20;fill-opacity:1;fill-rule:nonzero;stroke:none"
         id="path7583" />
    </g>
  </g>
</svg>
